<svg width="100" height="100" viewBox="0 0 100 100" xmlns="http://www.w3.org/2000/svg">
  <defs>
    <linearGradient id="cloudGradient" x1="0%" y1="0%" x2="100%" y2="100%">
      <stop offset="0%" style="stop-color:#4F63EA;stop-opacity:1" />
      <stop offset="50%" style="stop-color:#4FB8EA;stop-opacity:1" />
      <stop offset="100%" style="stop-color:#4FEA9B;stop-opacity:1" />
    </linearGradient>
  </defs>
  
  <!-- Cloud shape -->
  <path d="M25 50 C25 35, 35 25, 50 25 C55 25, 60 27, 63 30 C68 25, 75 25, 80 30 C85 35, 85 45, 80 50 L75 50 L75 75 L25 75 Z" 
        fill="url(#cloudGradient)" 
        stroke="none"/>
  
  <!-- Connection nodes inside cloud -->
  <rect x="35" y="40" width="6" height="6" fill="white" rx="1"/>
  <rect x="55" y="35" width="6" height="6" fill="white" rx="1"/>
  <rect x="65" y="55" width="6" height="6" fill="white" rx="1"/>
  <rect x="45" y="60" width="6" height="6" fill="white" rx="1"/>
  <rect x="50" y="45" width="6" height="6" fill="white" rx="1"/>
  
  <!-- Connection lines -->
  <line x1="38" y1="43" x2="53" y2="48" stroke="white" stroke-width="2"/>
  <line x1="58" y1="38" x2="53" y2="45" stroke="white" stroke-width="2"/>
  <line x1="56" y1="48" x2="65" y2="55" stroke="white" stroke-width="2"/>
  <line x1="53" y1="51" x2="48" y2="60" stroke="white" stroke-width="2"/>
</svg>